<?xml version="1.0" encoding="utf-8"?>
<!-- Generated by IcoMoon.io -->
<!DOCTYPE svg PUBLIC "-//W3C//DTD SVG 1.1//EN" "http://www.w3.org/Graphics/SVG/1.1/DTD/svg11.dtd">
<svg version="1.1" xmlns="http://www.w3.org/2000/svg" xmlns:xlink="http://www.w3.org/1999/xlink" width="80" height="16" viewBox="0 0 80 16">
<g transform="translate(0 0)">
	<path d="M14.036 12.374l-3.023-3.023c0.456-0.75 0.718-1.628 0.718-2.57 0-2.733-2.369-5.102-5.102-5.102-2.733 0-4.949 2.216-4.949 4.949 0 2.734 2.368 5.102 5.102 5.102 0.909 0 1.76-0.246 2.492-0.674l3.039 3.040c0.298 0.298 0.78 0.298 1.077 0l0.754-0.754c0.297-0.298 0.189-0.672-0.108-0.969zM3.203 6.629c0-1.892 1.534-3.426 3.426-3.426 1.893 0 3.579 1.686 3.579 3.579s-1.534 3.426-3.426 3.426-3.578-1.686-3.578-3.579z" />
</g>
<g transform="translate(32 0)">
	<path d="M12.386 9.15c-0.326-0.334-3.756-3.602-3.756-3.602-0.174-0.178-0.402-0.268-0.63-0.268-0.229 0-0.457 0.090-0.63 0.268 0 0-3.43 3.267-3.757 3.602-0.326 0.334-0.348 0.936 0 1.293 0.349 0.356 0.834 0.385 1.261 0l3.126-2.998 3.126 2.998c0.427 0.385 0.914 0.356 1.261 0 0.349-0.358 0.327-0.959 0-1.293z" />
</g>
<g transform="translate(64 0)">
	<path d="M12.386 6.85c-0.326 0.334-3.756 3.602-3.756 3.602-0.174 0.178-0.402 0.267-0.63 0.267-0.229 0-0.457-0.089-0.63-0.267 0 0-3.43-3.268-3.757-3.602-0.326-0.334-0.348-0.935 0-1.293 0.349-0.357 0.834-0.385 1.261 0l3.126 2.998 3.126-2.998c0.427-0.385 0.914-0.357 1.261 0 0.349 0.357 0.327 0.958 0 1.292z" />
</g>
</svg>
